<svg width="0" height="0" class="hidden">
  <symbol fill="none" xmlns="http://www.w3.org/2000/svg" viewBox="0 0 18 20" id="mail">
    <path d="M17.21 6.82003L11 0.780025C10.474 0.279878 9.77586 0.000976562 9.05 0.000976562C8.32415 0.000976562 7.62604 0.279878 7.1 0.780025L0.89 6.78003C0.614081 7.02089 0.392165 7.31733 0.23879 7.64993C0.0854142 7.98253 0.00404064 8.34379 0 8.71003V17.29C0.0105405 18.0176 0.309044 18.7114 0.830118 19.2194C1.35119 19.7273 2.05235 20.008 2.78 20H15.22C15.9476 20.008 16.6488 19.7273 17.1699 19.2194C17.691 18.7114 17.9895 18.0176 18 17.29V8.71003C17.9992 8.3585 17.929 8.01058 17.7935 7.68625C17.6579 7.36191 17.4596 7.06754 17.21 6.82003ZM8.44 2.22003C8.59298 2.08019 8.79274 2.00264 9 2.00264C9.20726 2.00264 9.40702 2.08019 9.56 2.22003L15 7.50003L9.53 12.78C9.37702 12.9199 9.17726 12.9974 8.97 12.9974C8.76274 12.9974 8.56298 12.9199 8.41 12.78L3 7.50003L8.44 2.22003ZM16 17.29C15.9871 17.4863 15.8987 17.67 15.7532 17.8024C15.6078 17.9348 15.4166 18.0056 15.22 18H2.78C2.58338 18.0056 2.39225 17.9348 2.24678 17.8024C2.10132 17.67 2.01286 17.4863 2 17.29V9.35003L6.05 13.25L4.39 14.85C4.20375 15.0374 4.09921 15.2908 4.09921 15.555C4.09921 15.8192 4.20375 16.0727 4.39 16.26C4.48295 16.3575 4.59463 16.4352 4.71836 16.4885C4.84208 16.5418 4.9753 16.5695 5.11 16.57C5.36747 16.569 5.61462 16.4687 5.8 16.29L7.57 14.59C8.00961 14.8587 8.51481 15.0008 9.03 15.0008C9.54519 15.0008 10.0504 14.8587 10.49 14.59L12.26 16.29C12.4454 16.4687 12.6925 16.569 12.95 16.57C13.0847 16.5695 13.2179 16.5418 13.3416 16.4885C13.4654 16.4352 13.5771 16.3575 13.67 16.26C13.8563 16.0727 13.9608 15.8192 13.9608 15.555C13.9608 15.2908 13.8563 15.0374 13.67 14.85L12 13.25L16 9.35003V17.29Z" fill="#F0FDF4"></path>
  </symbol>
  <symbol fill="none" xmlns="http://www.w3.org/2000/svg" viewBox="0 0 20 20" id="phone">
    <path d="M17.41 11C17.19 11 16.96 10.93 16.74 10.88C16.2948 10.7805 15.8571 10.6501 15.43 10.49C14.9661 10.3212 14.4561 10.33 13.9983 10.5146C13.5405 10.6992 13.1671 11.0466 12.95 11.49L12.73 11.95C11.7588 11.3992 10.8616 10.7271 10.06 9.95C9.28285 9.14837 8.6108 8.25118 8.06 7.28L8.52 7.07C8.96337 6.85292 9.31078 6.47953 9.49539 6.02169C9.68001 5.56385 9.68877 5.05391 9.52 4.59C9.36119 4.15903 9.23091 3.71808 9.13 3.27C9.08 3.05 9.04 2.82 9.01 2.6C8.88857 1.89562 8.51963 1.25774 7.96962 0.801239C7.41962 0.344737 6.7247 0.0996088 6.01 0.11H3C2.57725 0.109446 2.15915 0.198248 1.77312 0.370584C1.38709 0.54292 1.04184 0.794898 0.76 1.11C0.47232 1.43365 0.258115 1.81575 0.132104 2.23004C0.00609161 2.64432 -0.0287405 3.08098 0.0300003 3.51C0.573588 7.67214 2.47521 11.5387 5.44 14.51C8.41135 17.4748 12.2779 19.3764 16.44 19.92C16.5698 19.9299 16.7002 19.9299 16.83 19.92C17.5674 19.9211 18.2794 19.6505 18.83 19.16C19.1451 18.8782 19.3971 18.5329 19.5694 18.1469C19.7418 17.7609 19.8306 17.3428 19.83 16.92V13.92C19.8246 13.229 19.5809 12.5611 19.1399 12.0291C18.699 11.4971 18.088 11.1336 17.41 11ZM17.9 17C17.8997 17.1395 17.8701 17.2775 17.8133 17.4049C17.7565 17.5324 17.6736 17.6465 17.57 17.74C17.4604 17.8399 17.33 17.9141 17.1881 17.9573C17.0463 18.0006 16.8967 18.0117 16.75 17.99C13.0183 17.5026 9.55025 15.802 6.88 13.15C4.20747 10.4775 2.49203 6.99737 2 3.25C1.97828 3.10333 1.98944 2.95367 2.03268 2.81185C2.07591 2.67003 2.15015 2.5396 2.25 2.43C2.34462 2.32515 2.46038 2.24154 2.58965 2.18466C2.71892 2.12778 2.85877 2.09892 3 2.1H6C6.23116 2.09435 6.45714 2.16898 6.63946 2.3112C6.82179 2.45341 6.9492 2.65442 7 2.88C7 3.15 7.09 3.43 7.15 3.7C7.26558 4.22386 7.41932 4.73857 7.61 5.24L6.21 5.9C5.96936 6.01046 5.78236 6.21185 5.69 6.46C5.58998 6.70346 5.58998 6.97654 5.69 7.22C7.1292 10.3028 9.60724 12.7808 12.69 14.22C12.9335 14.32 13.2065 14.32 13.45 14.22C13.6981 14.1276 13.8995 13.9406 14.01 13.7L14.64 12.3C15.1559 12.4881 15.6837 12.6418 16.22 12.76C16.48 12.82 16.76 12.87 17.03 12.91C17.2556 12.9608 17.4566 13.0882 17.5988 13.2705C17.741 13.4529 17.8156 13.6788 17.81 13.91L17.9 17ZM12 0C11.77 0 11.53 0 11.3 0C11.0348 0.0225434 10.7894 0.14952 10.6178 0.352997C10.4462 0.556474 10.3625 0.819784 10.385 1.085C10.4075 1.35022 10.5345 1.59562 10.738 1.76721C10.9415 1.93881 11.2048 2.02254 11.47 2H12C13.5913 2 15.1174 2.63214 16.2426 3.75736C17.3679 4.88258 18 6.4087 18 8C18 8.18 18 8.35 18 8.53C17.9778 8.79381 18.0612 9.05565 18.2318 9.2581C18.4023 9.46055 18.6463 9.5871 18.91 9.61H18.99C19.2403 9.61102 19.4819 9.5181 19.6671 9.34961C19.8522 9.18113 19.9675 8.94932 19.99 8.7C19.99 8.47 19.99 8.23 19.99 8C19.99 5.88 19.1485 3.84668 17.6504 2.34668C16.1523 0.846674 14.12 0.00265 12 0ZM14 8C14 8.26522 14.1054 8.51957 14.2929 8.70711C14.4804 8.89464 14.7348 9 15 9C15.2652 9 15.5196 8.89464 15.7071 8.70711C15.8946 8.51957 16 8.26522 16 8C16 6.93913 15.5786 5.92172 14.8284 5.17157C14.0783 4.42143 13.0609 4 12 4C11.7348 4 11.4804 4.10536 11.2929 4.29289C11.1054 4.48043 11 4.73478 11 5C11 5.26522 11.1054 5.51957 11.2929 5.70711C11.4804 5.89464 11.7348 6 12 6C12.5304 6 13.0391 6.21071 13.4142 6.58579C13.7893 6.96086 14 7.46957 14 8Z" fill="#F0FDF4"></path>
  </symbol>
  <symbol fill="none" xmlns="http://www.w3.org/2000/svg" viewBox="0 0 20 20" id="socials">
    <path d="M19 0H1C0.734784 0 0.48043 0.105357 0.292893 0.292893C0.105357 0.48043 0 0.734784 0 1V19C0 19.2652 0.105357 19.5196 0.292893 19.7071C0.48043 19.8946 0.734784 20 1 20H19C19.2652 20 19.5196 19.8946 19.7071 19.7071C19.8946 19.5196 20 19.2652 20 19V1C20 0.734784 19.8946 0.48043 19.7071 0.292893C19.5196 0.105357 19.2652 0 19 0ZM6 18H2V14H6V18ZM6 12H2V8H6V12ZM6 6H2V2H6V6ZM12 18H8V14H12V18ZM12 12H8V8H12V12ZM12 6H8V2H12V6ZM18 18H14V14H18V18ZM18 12H14V8H18V12ZM18 6H14V2H18V6Z" fill="#F0FDF4"></path>
  </symbol>
  <symbol fill="none" xmlns="http://www.w3.org/2000/svg" viewBox="0 0 31 31" id="Inventory">
    <path d="M1.55 27.9V10.385C1.11083 10.1008 0.742967 9.73917 0.4464 9.3C0.1488 8.86083 0 8.34417 0 7.75V3.1C0 2.2475 0.3038 1.51745 0.9114 0.90985C1.51797 0.303283 2.2475 0 3.1 0H27.9C28.7525 0 29.4825 0.303283 30.0901 0.90985C30.6967 1.51745 31 2.2475 31 3.1V7.75C31 8.34417 30.8512 8.86083 30.5536 9.3C30.257 9.73917 29.8892 10.1008 29.45 10.385V27.9C29.45 28.7525 29.1467 29.4825 28.5401 30.0901C27.9325 30.6967 27.2025 31 26.35 31H4.65C3.7975 31 3.06745 30.6967 2.45985 30.0901C1.85328 29.4825 1.55 28.7525 1.55 27.9ZM27.9 7.75V3.1H3.1V7.75H27.9ZM10.85 18.6H20.15V15.5H10.85V18.6Z" fill="white"></path>
  </symbol>
  <symbol fill="none" xmlns="http://www.w3.org/2000/svg" viewBox="0 0 32 39" id="payment">
    <path d="M15.5191 0.994141C14.2969 1.01875 13.4191 1.25664 12.8367 1.6832L4.85508 5.95703L0.41719 11.9937C-0.517966 13.4375 0.146488 16.2265 3.0668 14.4382L6.26602 10.2218C10.3266 6.71992 18.6117 8.32691 14.6824 15.357C12.7547 19.4257 13.657 21.4109 16.1426 22.2476L17.2746 18.4414C19.2352 14.0281 22.8938 13.2324 22.7461 9.67223L31.5398 10.3039L31.4578 1.10898L15.5191 0.994141ZM11.0813 9.47535C9.65391 9.45074 8.25117 10.0414 7.23399 10.8945L4.02657 15.1109C4.9043 15.8082 5.79024 15.4308 6.66797 14.5859C7.70156 15.1109 8.50547 14.2988 9.16172 12.6746C9.43242 11.5671 9.83438 10.7879 11.0813 9.47535ZM4.55157 17.3504C4.51875 17.3504 4.47774 17.3504 4.44492 17.3586C4.17422 17.416 3.8543 17.7031 3.64102 18.3593C3.41953 19.0156 3.37032 19.9507 3.56719 20.9515C3.76407 21.9441 4.17422 22.789 4.6336 23.314C5.07656 23.8308 5.48672 23.9785 5.75742 23.9211C6.03633 23.8718 6.34805 23.5765 6.56133 22.9285C6.78281 22.2722 6.84024 21.3289 6.64336 20.3363C6.43828 19.3355 6.02813 18.4906 5.57696 17.9738C5.18321 17.5144 4.82227 17.3504 4.55157 17.3504ZM11.3273 26.1113C10.6793 26.1195 9.86719 26.3246 9.07149 26.7101C8.16094 27.1613 7.44727 27.7847 7.06172 28.3589C6.67617 28.925 6.64336 29.3515 6.76641 29.6058C6.88946 29.8519 7.25039 30.0898 7.93946 30.1226C8.62852 30.1636 9.55547 29.975 10.466 29.5238C11.3766 29.0726 12.0902 28.4574 12.4758 27.8832C12.8613 27.3171 12.8941 26.8824 12.7711 26.6363C12.648 26.382 12.2871 26.1523 11.5981 26.1195C11.5078 26.1113 11.4258 26.1113 11.3273 26.1113ZM3.3211 33.9535C2.93555 33.9617 2.58281 34.0191 2.2711 34.1093C1.57383 34.3144 1.17188 34.6836 1.04063 35.1183C0.901175 35.5613 1.04063 36.0863 1.50821 36.6523C1.98399 37.2101 2.77969 37.7433 3.76407 38.0386C4.74024 38.3339 5.6918 38.3257 6.39727 38.1125C7.10274 37.9074 7.50469 37.5382 7.63594 37.1035C7.76719 36.6605 7.63594 36.1355 7.16016 35.5695C6.69258 35.0117 5.89688 34.4785 4.9125 34.1832C4.35469 34.0191 3.81328 33.9453 3.3211 33.9535Z" fill="white"></path>
  </symbol>
  <symbol fill="none" xmlns="http://www.w3.org/2000/svg" viewBox="0 0 20 20" id="investment">
    <path d="M8 11H1C0.734784 11 0.48043 11.1054 0.292893 11.2929C0.105357 11.4804 0 11.7348 0 12V19C0 19.2652 0.105357 19.5196 0.292893 19.7071C0.48043 19.8946 0.734784 20 1 20H8C8.26522 20 8.51957 19.8946 8.70711 19.7071C8.89464 19.5196 9 19.2652 9 19V12C9 11.7348 8.89464 11.4804 8.70711 11.2929C8.51957 11.1054 8.26522 11 8 11ZM7 18H2V13H7V18ZM19 0H12C11.7348 0 11.4804 0.105357 11.2929 0.292893C11.1054 0.48043 11 0.734784 11 1V8C11 8.26522 11.1054 8.51957 11.2929 8.70711C11.4804 8.89464 11.7348 9 12 9H19C19.2652 9 19.5196 8.89464 19.7071 8.70711C19.8946 8.51957 20 8.26522 20 8V1C20 0.734784 19.8946 0.48043 19.7071 0.292893C19.5196 0.105357 19.2652 0 19 0ZM18 7H13V2H18V7ZM19 11H12C11.7348 11 11.4804 11.1054 11.2929 11.2929C11.1054 11.4804 11 11.7348 11 12V19C11 19.2652 11.1054 19.5196 11.2929 19.7071C11.4804 19.8946 11.7348 20 12 20H19C19.2652 20 19.5196 19.8946 19.7071 19.7071C19.8946 19.5196 20 19.2652 20 19V12C20 11.7348 19.8946 11.4804 19.7071 11.2929C19.5196 11.1054 19.2652 11 19 11ZM18 18H13V13H18V18ZM8 0H1C0.734784 0 0.48043 0.105357 0.292893 0.292893C0.105357 0.48043 0 0.734784 0 1V8C0 8.26522 0.105357 8.51957 0.292893 8.70711C0.48043 8.89464 0.734784 9 1 9H8C8.26522 9 8.51957 8.89464 8.70711 8.70711C8.89464 8.51957 9 8.26522 9 8V1C9 0.734784 8.89464 0.48043 8.70711 0.292893C8.51957 0.105357 8.26522 0 8 0ZM7 7H2V2H7V7Z" fill="white"></path>
  </symbol>
  <symbol fill="none" xmlns="http://www.w3.org/2000/svg" viewBox="0 0 25 29" id="Invoice">
    <path d="M0.125 28.25L2.1875 26.1875L4.25 28.25L6.3125 26.1875L8.375 28.25L10.4375 26.1875L12.5 28.25L14.5625 26.1875L16.625 28.25L18.6875 26.1875L20.75 28.25L22.8125 26.1875L24.875 28.25V0.75L22.8125 2.8125L20.75 0.75L18.6875 2.8125L16.625 0.75L14.5625 2.8125L12.5 0.75L10.4375 2.8125L8.375 0.75L6.3125 2.8125L4.25 0.75L2.1875 2.8125L0.125 0.75M20.75 10.375H4.25V7.625H20.75M20.75 15.875H4.25V13.125H20.75M20.75 21.375H4.25V18.625H20.75V21.375Z" fill="white"></path>
  </symbol>
  <symbol fill="none" xmlns="http://www.w3.org/2000/svg" viewBox="0 0 42 26" id="Business">
    <path d="M38.6129 0H3.3871C2.49015 0.00449603 1.63122 0.366371 0.996976 1.00697C0.362735 1.64757 0.00445141 2.51512 0 3.42105V22.5789C0.00445141 23.4849 0.362735 24.3524 0.996976 24.993C1.63122 25.6336 2.49015 25.9955 3.3871 26H38.6129C39.5098 25.9955 40.3688 25.6336 41.003 24.993C41.6373 24.3524 41.9955 23.4849 42 22.5789V3.42105C41.9955 2.51512 41.6373 1.64757 41.003 1.00697C40.3688 0.366371 39.5098 0.00449603 38.6129 0ZM15.0048 21.8947L5.09758 13L15.0048 4.10526H26.9952L36.9024 13L26.9952 21.8947H15.0048ZM37.9355 8.4329L33.1258 4.10526H37.9355V8.4329ZM8.87419 4.10526L4.06452 8.4329V4.10526H8.87419ZM4.06452 17.5671L8.87419 21.8947H4.06452V17.5671ZM33.1258 21.8947L37.9355 17.5671V21.8947H33.1258ZM21 6.1579C19.6602 6.15789 18.3505 6.55918 17.2365 7.311C16.1224 8.06282 15.2542 9.13141 14.7415 10.3816C14.2287 11.6319 14.0946 13.0076 14.356 14.3348C14.6174 15.6621 15.2625 16.8812 16.2099 17.8381C17.1573 18.795 18.3644 19.4466 19.6784 19.7106C20.9925 19.9746 22.3546 19.8391 23.5924 19.3213C24.8302 18.8034 25.8882 17.9264 26.6325 16.8013C27.3769 15.6761 27.7742 14.3532 27.7742 13C27.7742 11.1854 27.0605 9.44504 25.7901 8.1619C24.5197 6.87876 22.7966 6.1579 21 6.1579ZM21 15.7368C20.4641 15.7368 19.9402 15.5763 19.4946 15.2756C19.049 14.9749 18.7017 14.5474 18.4966 14.0473C18.2915 13.5473 18.2378 12.997 18.3424 12.4661C18.4469 11.9352 18.705 11.4475 19.084 11.0648C19.4629 10.682 19.9457 10.4213 20.4714 10.3157C20.997 10.2101 21.5418 10.2643 22.0369 10.4715C22.5321 10.6786 22.9553 11.0294 23.253 11.4795C23.5508 11.9296 23.7097 12.4587 23.7097 13C23.7097 13.7259 23.4242 14.422 22.916 14.9352C22.4079 15.4485 21.7187 15.7368 21 15.7368Z" fill="white"></path>
  </symbol>
</svg>