<svg width="0" height="0" class="hidden">
  <symbol fill="none" xmlns="http://www.w3.org/2000/svg" viewBox="0 0 22 12" id="line">
    <path d="M15.2929 10.2929C14.9024 10.6834 14.9024 11.3166 15.2929 11.7071C15.6834 12.0976 16.3166 12.0976 16.7071 11.7071L21.7071 6.70711C22.0976 6.31658 22.0976 5.68342 21.7071 5.29289L16.7071 0.292894C16.3166 -0.0976312 15.6834 -0.0976312 15.2929 0.292894C14.9024 0.683417 14.9024 1.31658 15.2929 1.70711L18.5858 5H1C0.447715 5 0 5.44772 0 6C0 6.55229 0.447715 7 1 7H18.5858L15.2929 10.2929Z" fill="white"></path>
  </symbol>
  <symbol fill="none" xmlns="http://www.w3.org/2000/svg" viewBox="0 0 22 12" id="line-dark">
    <path fill-rule="evenodd" clip-rule="evenodd" d="M6.70711 0.292893C7.09763 0.683417 7.09763 1.31658 6.70711 1.70711L3.41421 5H21C21.5523 5 22 5.44772 22 6C22 6.55228 21.5523 7 21 7H3.41421L6.70711 10.2929C7.09763 10.6834 7.09763 11.3166 6.70711 11.7071C6.31658 12.0976 5.68342 12.0976 5.29289 11.7071L0.292893 6.70711C-0.0976311 6.31658 -0.0976311 5.68342 0.292893 5.29289L5.29289 0.292893C5.68342 -0.0976311 6.31658 -0.0976311 6.70711 0.292893Z" fill="#121127"></path>
  </symbol>
</svg>